# xmcd
#
# Track frame offsets:
# 150
# 21831
# 42141
# 56146
# 73962
# 106076
# 123171
# 141861
# 165357
# 184757
# 226778
# 245009
# 258465
#
# Disc length: 3553 seconds
#
#
# Revision: 3
# Processed by: cddbd v1.5.1PL2 Copyright (c) Steve Scherf et al.
# Submitted via: FreeRIP 2.944 
#
DISCID=af0ddf0d
DTITLE=Howard Glazer - EL 34s - Brown Paper Bag
DYEAR=2005
DGENRE=Blues -  Blues Rock
TTITLE0=Brown Paper Bag
TTITLE1=Cold, Sad and Lonely
TTITLE2=Steamrollin' Baby
TTITLE3=Going to Chicago
TTITLE4=Sad Situation
TTITLE5=Radioactive Woman
TTITLE6=Don't Love You No More
TTITLE7=Full Moon Blues
TTITLE8=Mean Hearted Woman
TTITLE9=Dogs They Bark at Midnight
TTITLE10=Smokin' and Drinkin'
TTITLE11=Start Again
TTITLE12=Freedom
EXTD=
EXTT0=
EXTT1=
EXTT2=
EXTT3=
EXTT4=
EXTT5=
EXTT6=
EXTT7=
EXTT8=
EXTT9=
EXTT10=
EXTT11=
EXTT12=
PLAYORDER=
